<?xml version="1.0" encoding="UTF-8"?>
<svg height="128px" viewBox="0 0 128 128" width="128px" xmlns="http://www.w3.org/2000/svg" xmlns:xlink="http://www.w3.org/1999/xlink">
    <linearGradient id="a" gradientUnits="userSpaceOnUse" x1="108" x2="108" y1="118" y2="8">
        <stop offset="0" stop-color="#c061cb"/>
        <stop offset="1" stop-color="#3584e4"/>
    </linearGradient>
    <linearGradient id="b" gradientUnits="userSpaceOnUse" x1="75.507004" x2="63.667999" y1="79.666" y2="123.852997">
        <stop offset="0.234" stop-color="#c0bfbc"/>
        <stop offset="0.646" stop-color="#deddda"/>
        <stop offset="1" stop-color="#c0bfbc"/>
    </linearGradient>
    <linearGradient id="c" gradientUnits="userSpaceOnUse" x1="78.175003" x2="90.014999" y1="79.666" y2="123.852997">
        <stop offset="0" stop-color="#c0bfbc"/>
        <stop offset="0.646" stop-color="#deddda"/>
        <stop offset="1" stop-color="#c0bfbc"/>
    </linearGradient>
    <clipPath id="d">
        <rect height="128" width="128"/>
    </clipPath>
    <clipPath id="e">
        <rect height="128" width="128"/>
    </clipPath>
    <filter id="f" height="100%" width="100%" x="0%" y="0%">
        <feColorMatrix in="SourceGraphic" type="matrix" values="0 0 0 0 1 0 0 0 0 1 0 0 0 0 1 0 0 0 1 0"/>
    </filter>
    <mask id="g">
        <g clip-path="url(#e)" filter="url(#f)">
            <g clip-path="url(#d)">
                <path d="m 20 10 h 10 v 4.128906 c 0 1.65625 1.34375 3 3 3 h 8 c 1.65625 0 3 -1.34375 3 -3 v -4.128906 h 40 v 4.128906 c 0 1.65625 1.34375 3 3 3 h 8 c 1.65625 0 3 -1.34375 3 -3 v -4.128906 h 10 v 110 h -10 v -3.109375 c 0 -1.660156 -1.34375 -3 -3 -3 h -8 c -1.65625 0 -3 1.339844 -3 3 v 3.109375 h -40 v -3.109375 c 0 -1.660156 -1.34375 -3 -3 -3 h -8 c -1.65625 0 -3 1.339844 -3 3 v 3.109375 h -10 z m 67 18.332031 c -1.65625 0 -3 1.34375 -3 3 v 4.1875 c 0 1.65625 1.34375 3 3 3 h 8 c 1.65625 0 3 -1.34375 3 -3 v -4.1875 c 0 -1.65625 -1.34375 -3 -3 -3 z m -3 24.390625 c 0 -1.65625 1.34375 -3 3 -3 h 8 c 1.65625 0 3 1.34375 3 3 v 4.183594 c 0 1.65625 -1.34375 3 -3 3 h -8 c -1.65625 0 -3 -1.34375 -3 -3 z m 3 18.386719 c -1.65625 0 -3 1.34375 -3 3 v 4.1875 c 0 1.65625 1.34375 3 3 3 h 8 c 1.65625 0 3 -1.34375 3 -3 v -4.1875 c 0 -1.65625 -1.34375 -3 -3 -3 z m -3 24.390625 c 0 -1.65625 1.34375 -3 3 -3 h 8 c 1.65625 0 3 1.34375 3 3 v 4.183594 c 0 1.660156 -1.34375 3 -3 3 h -8 c -1.65625 0 -3 -1.339844 -3 -3 z m -51 -67.167969 c -1.65625 0 -3 1.34375 -3 3 v 4.1875 c 0 1.65625 1.34375 3 3 3 h 8 c 1.65625 0 3 -1.34375 3 -3 v -4.1875 c 0 -1.65625 -1.34375 -3 -3 -3 z m -3 24.390625 c 0 -1.65625 1.34375 -3 3 -3 h 8 c 1.65625 0 3 1.34375 3 3 v 4.183594 c 0 1.65625 -1.34375 3 -3 3 h -8 c -1.65625 0 -3 -1.34375 -3 -3 z m 3 18.386719 c -1.65625 0 -3 1.34375 -3 3 v 4.1875 c 0 1.65625 1.34375 3 3 3 h 8 c 1.65625 0 3 -1.34375 3 -3 v -4.1875 c 0 -1.65625 -1.34375 -3 -3 -3 z m -3 24.390625 c 0 -1.65625 1.34375 -3 3 -3 h 8 c 1.65625 0 3 1.34375 3 3 v 4.183594 c 0 1.660156 -1.34375 3 -3 3 h -8 c -1.65625 0 -3 -1.339844 -3 -3 z m 0 0" fill="#813d9c" fill-rule="evenodd"/>
                <path d="m 20 8 h 10 v 4.128906 c 0 1.65625 1.34375 3 3 3 h 8 c 1.65625 0 3 -1.34375 3 -3 v -4.128906 h 40 v 4.128906 c 0 1.65625 1.34375 3 3 3 h 8 c 1.65625 0 3 -1.34375 3 -3 v -4.128906 h 10 v 110 h -10 v -3.109375 c 0 -1.660156 -1.34375 -3 -3 -3 h -8 c -1.65625 0 -3 1.339844 -3 3 v 3.109375 h -40 v -3.109375 c 0 -1.660156 -1.34375 -3 -3 -3 h -8 c -1.65625 0 -3 1.339844 -3 3 v 3.109375 h -10 z m 67 18.332031 c -1.65625 0 -3 1.34375 -3 3 v 4.1875 c 0 1.65625 1.34375 3 3 3 h 8 c 1.65625 0 3 -1.34375 3 -3 v -4.1875 c 0 -1.65625 -1.34375 -3 -3 -3 z m -3 24.390625 c 0 -1.65625 1.34375 -3 3 -3 h 8 c 1.65625 0 3 1.34375 3 3 v 4.183594 c 0 1.65625 -1.34375 3 -3 3 h -8 c -1.65625 0 -3 -1.34375 -3 -3 z m 3 18.386719 c -1.65625 0 -3 1.34375 -3 3 v 4.1875 c 0 1.65625 1.34375 3 3 3 h 8 c 1.65625 0 3 -1.34375 3 -3 v -4.1875 c 0 -1.65625 -1.34375 -3 -3 -3 z m -3 24.390625 c 0 -1.65625 1.34375 -3 3 -3 h 8 c 1.65625 0 3 1.34375 3 3 v 4.183594 c 0 1.660156 -1.34375 3 -3 3 h -8 c -1.65625 0 -3 -1.339844 -3 -3 z m -51 -67.167969 c -1.65625 0 -3 1.34375 -3 3 v 4.1875 c 0 1.65625 1.34375 3 3 3 h 8 c 1.65625 0 3 -1.34375 3 -3 v -4.1875 c 0 -1.65625 -1.34375 -3 -3 -3 z m -3 24.390625 c 0 -1.65625 1.34375 -3 3 -3 h 8 c 1.65625 0 3 1.34375 3 3 v 4.183594 c 0 1.65625 -1.34375 3 -3 3 h -8 c -1.65625 0 -3 -1.34375 -3 -3 z m 3 18.386719 c -1.65625 0 -3 1.34375 -3 3 v 4.1875 c 0 1.65625 1.34375 3 3 3 h 8 c 1.65625 0 3 -1.34375 3 -3 v -4.1875 c 0 -1.65625 -1.34375 -3 -3 -3 z m -3 24.390625 c 0 -1.65625 1.34375 -3 3 -3 h 8 c 1.65625 0 3 1.34375 3 3 v 4.183594 c 0 1.660156 -1.34375 3 -3 3 h -8 c -1.65625 0 -3 -1.339844 -3 -3 z m 0 0" fill="url(#a)" fill-rule="evenodd"/>
                <path d="m 109.945312 54.25 c 2.238282 -8.359375 -2.722656 -16.953125 -11.082031 -19.195312 c -8.226562 -2.203126 -16.675781 2.5625 -19.082031 10.675781 h -0.003906 l -0.078125 0.292969 c -0.023438 0.078124 -0.042969 0.152343 -0.0625 0.230468 l -8.628907 32.207032 l 10.769532 2.886718 l 11.066406 -15.601562 c 7.65625 0.976562 15.046875 -3.832032 17.101562 -11.496094 z m -13.277343 -11.011719 c 3.84375 1.03125 6.121093 4.980469 5.09375 8.820313 c -1.03125 3.839844 -4.980469 6.121094 -8.820313 5.089844 c -3.839844 -1.027344 -6.121094 -4.976563 -5.089844 -8.816407 c 1.027344 -3.839843 4.976563 -6.121093 8.816407 -5.09375 z m 0 0" fill="#f5c211" fill-rule="evenodd"/>
                <path d="m 80.007812 80.871094 l -9 -2.410156 l -10.160156 37.90625 c -0.929687 3.46875 1.128906 7.035156 4.597656 7.960937 l 2.722657 0.730469 z m 0 0" fill="url(#b)"/>
                <path d="m 80.007812 80.871094 l -1.636718 -0.4375 l -11.839844 44.1875 l 1.636719 0.4375 z m 0 0" fill="#deddda"/>
                <path d="m 43.738281 54.25 c -2.238281 -8.359375 2.722657 -16.953125 11.082031 -19.195312 c 8.222657 -2.203126 16.671876 2.5625 19.078126 10.675781 h 0.007812 l 0.105469 0.394531 l 0.003906 0.011719 l 0.003906 0.015625 l 8.65625 32.308594 l -10.769531 2.886718 l -11.066406 -15.601562 c -7.65625 0.976562 -15.046875 -3.832032 -17.101563 -11.496094 z m 13.273438 -11.011719 c -3.839844 1.03125 -6.121094 4.980469 -5.089844 8.820313 c 1.027344 3.839844 4.976563 6.121094 8.816406 5.089844 c 3.84375 -1.027344 6.121094 -4.976563 5.09375 -8.816407 c -1.03125 -3.839843 -4.976562 -6.121093 -8.820312 -5.09375 z m 0 0" fill="#f6d32d" fill-rule="evenodd"/>
                <path d="m 73.675781 80.871094 l 9 -2.410156 l 10.15625 37.90625 c 0.929688 3.46875 -1.128906 7.035156 -4.59375 7.960937 l -2.722656 0.730469 z m 0 0" fill="url(#c)"/>
                <path d="m 73.675781 80.871094 l 1.636719 -0.4375 l 11.839844 44.1875 l -1.636719 0.4375 z m 0 0" fill="#deddda"/>
                <path d="m 66 64 l 8 12" fill="none" stroke="#ffffff" stroke-linecap="round" stroke-opacity="0.501961" stroke-width="3"/>
            </g>
        </g>
    </mask>
    <mask id="h">
        <g filter="url(#f)">
            <rect fill-opacity="0.8" height="128" width="128"/>
        </g>
    </mask>
    <linearGradient id="i" gradientTransform="matrix(0 0.37 -0.98462 0 295.38501 -30.360001)" gradientUnits="userSpaceOnUse" x1="300" x2="428" y1="235" y2="235">
        <stop offset="0" stop-color="#f9f06b"/>
        <stop offset="1" stop-color="#f5c211"/>
    </linearGradient>
    <clipPath id="j">
        <rect height="128" width="128"/>
    </clipPath>
    <clipPath id="k">
        <rect height="128" width="128"/>
    </clipPath>
    <g fill-rule="evenodd">
        <path d="m 20 10 h 10 v 4.128906 c 0 1.65625 1.34375 3 3 3 h 8 c 1.65625 0 3 -1.34375 3 -3 v -4.128906 h 40 v 4.128906 c 0 1.65625 1.34375 3 3 3 h 8 c 1.65625 0 3 -1.34375 3 -3 v -4.128906 h 10 v 110 h -10 v -3.109375 c 0 -1.660156 -1.34375 -3 -3 -3 h -8 c -1.65625 0 -3 1.339844 -3 3 v 3.109375 h -40 v -3.109375 c 0 -1.660156 -1.34375 -3 -3 -3 h -8 c -1.65625 0 -3 1.339844 -3 3 v 3.109375 h -10 z m 67 18.332031 c -1.65625 0 -3 1.34375 -3 3 v 4.1875 c 0 1.65625 1.34375 3 3 3 h 8 c 1.65625 0 3 -1.34375 3 -3 v -4.1875 c 0 -1.65625 -1.34375 -3 -3 -3 z m -3 24.390625 c 0 -1.65625 1.34375 -3 3 -3 h 8 c 1.65625 0 3 1.34375 3 3 v 4.183594 c 0 1.65625 -1.34375 3 -3 3 h -8 c -1.65625 0 -3 -1.34375 -3 -3 z m 3 18.386719 c -1.65625 0 -3 1.34375 -3 3 v 4.1875 c 0 1.65625 1.34375 3 3 3 h 8 c 1.65625 0 3 -1.34375 3 -3 v -4.1875 c 0 -1.65625 -1.34375 -3 -3 -3 z m -3 24.390625 c 0 -1.65625 1.34375 -3 3 -3 h 8 c 1.65625 0 3 1.34375 3 3 v 4.183594 c 0 1.660156 -1.34375 3 -3 3 h -8 c -1.65625 0 -3 -1.339844 -3 -3 z m -51 -67.167969 c -1.65625 0 -3 1.34375 -3 3 v 4.1875 c 0 1.65625 1.34375 3 3 3 h 8 c 1.65625 0 3 -1.34375 3 -3 v -4.1875 c 0 -1.65625 -1.34375 -3 -3 -3 z m -3 24.390625 c 0 -1.65625 1.34375 -3 3 -3 h 8 c 1.65625 0 3 1.34375 3 3 v 4.183594 c 0 1.65625 -1.34375 3 -3 3 h -8 c -1.65625 0 -3 -1.34375 -3 -3 z m 3 18.386719 c -1.65625 0 -3 1.34375 -3 3 v 4.1875 c 0 1.65625 1.34375 3 3 3 h 8 c 1.65625 0 3 -1.34375 3 -3 v -4.1875 c 0 -1.65625 -1.34375 -3 -3 -3 z m -3 24.390625 c 0 -1.65625 1.34375 -3 3 -3 h 8 c 1.65625 0 3 1.34375 3 3 v 4.183594 c 0 1.660156 -1.34375 3 -3 3 h -8 c -1.65625 0 -3 -1.339844 -3 -3 z m 0 0" fill="#813d9c"/>
        <path d="m 20 8 h 10 v 4.128906 c 0 1.65625 1.34375 3 3 3 h 8 c 1.65625 0 3 -1.34375 3 -3 v -4.128906 h 40 v 4.128906 c 0 1.65625 1.34375 3 3 3 h 8 c 1.65625 0 3 -1.34375 3 -3 v -4.128906 h 10 v 110 h -10 v -3.109375 c 0 -1.660156 -1.34375 -3 -3 -3 h -8 c -1.65625 0 -3 1.339844 -3 3 v 3.109375 h -40 v -3.109375 c 0 -1.660156 -1.34375 -3 -3 -3 h -8 c -1.65625 0 -3 1.339844 -3 3 v 3.109375 h -10 z m 67 18.332031 c -1.65625 0 -3 1.34375 -3 3 v 4.1875 c 0 1.65625 1.34375 3 3 3 h 8 c 1.65625 0 3 -1.34375 3 -3 v -4.1875 c 0 -1.65625 -1.34375 -3 -3 -3 z m -3 24.390625 c 0 -1.65625 1.34375 -3 3 -3 h 8 c 1.65625 0 3 1.34375 3 3 v 4.183594 c 0 1.65625 -1.34375 3 -3 3 h -8 c -1.65625 0 -3 -1.34375 -3 -3 z m 3 18.386719 c -1.65625 0 -3 1.34375 -3 3 v 4.1875 c 0 1.65625 1.34375 3 3 3 h 8 c 1.65625 0 3 -1.34375 3 -3 v -4.1875 c 0 -1.65625 -1.34375 -3 -3 -3 z m -3 24.390625 c 0 -1.65625 1.34375 -3 3 -3 h 8 c 1.65625 0 3 1.34375 3 3 v 4.183594 c 0 1.660156 -1.34375 3 -3 3 h -8 c -1.65625 0 -3 -1.339844 -3 -3 z m -51 -67.167969 c -1.65625 0 -3 1.34375 -3 3 v 4.1875 c 0 1.65625 1.34375 3 3 3 h 8 c 1.65625 0 3 -1.34375 3 -3 v -4.1875 c 0 -1.65625 -1.34375 -3 -3 -3 z m -3 24.390625 c 0 -1.65625 1.34375 -3 3 -3 h 8 c 1.65625 0 3 1.34375 3 3 v 4.183594 c 0 1.65625 -1.34375 3 -3 3 h -8 c -1.65625 0 -3 -1.34375 -3 -3 z m 3 18.386719 c -1.65625 0 -3 1.34375 -3 3 v 4.1875 c 0 1.65625 1.34375 3 3 3 h 8 c 1.65625 0 3 -1.34375 3 -3 v -4.1875 c 0 -1.65625 -1.34375 -3 -3 -3 z m -3 24.390625 c 0 -1.65625 1.34375 -3 3 -3 h 8 c 1.65625 0 3 1.34375 3 3 v 4.183594 c 0 1.660156 -1.34375 3 -3 3 h -8 c -1.65625 0 -3 -1.339844 -3 -3 z m 0 0" fill="url(#a)"/>
        <path d="m 109.945312 54.25 c 2.238282 -8.359375 -2.722656 -16.953125 -11.082031 -19.195312 c -8.226562 -2.203126 -16.675781 2.5625 -19.082031 10.675781 h -0.003906 l -0.078125 0.292969 c -0.023438 0.078124 -0.042969 0.152343 -0.0625 0.230468 l -8.628907 32.207032 l 10.769532 2.886718 l 11.066406 -15.601562 c 7.65625 0.976562 15.046875 -3.832032 17.101562 -11.496094 z m -13.277343 -11.011719 c 3.84375 1.03125 6.121093 4.980469 5.09375 8.820313 c -1.03125 3.839844 -4.980469 6.121094 -8.820313 5.089844 c -3.839844 -1.027344 -6.121094 -4.976563 -5.089844 -8.816407 c 1.027344 -3.839843 4.976563 -6.121093 8.816407 -5.09375 z m 0 0" fill="#f5c211"/>
    </g>
    <path d="m 80.007812 80.871094 l -9 -2.410156 l -10.160156 37.90625 c -0.929687 3.46875 1.128906 7.035156 4.597656 7.960937 l 2.722657 0.730469 z m 0 0" fill="url(#b)"/>
    <path d="m 80.007812 80.871094 l -1.636718 -0.4375 l -11.839844 44.1875 l 1.636719 0.4375 z m 0 0" fill="#deddda"/>
    <path d="m 43.738281 54.25 c -2.238281 -8.359375 2.722657 -16.953125 11.082031 -19.195312 c 8.222657 -2.203126 16.671876 2.5625 19.078126 10.675781 h 0.007812 l 0.105469 0.394531 l 0.003906 0.011719 l 0.003906 0.015625 l 8.65625 32.308594 l -10.769531 2.886718 l -11.066406 -15.601562 c -7.65625 0.976562 -15.046875 -3.832032 -17.101563 -11.496094 z m 13.273438 -11.011719 c -3.839844 1.03125 -6.121094 4.980469 -5.089844 8.820313 c 1.027344 3.839844 4.976563 6.121094 8.816406 5.089844 c 3.84375 -1.027344 6.121094 -4.976563 5.09375 -8.816407 c -1.03125 -3.839843 -4.976562 -6.121093 -8.820312 -5.09375 z m 0 0" fill="#f6d32d" fill-rule="evenodd"/>
    <path d="m 73.675781 80.871094 l 9 -2.410156 l 10.15625 37.90625 c 0.929688 3.46875 -1.128906 7.035156 -4.59375 7.960937 l -2.722656 0.730469 z m 0 0" fill="url(#c)"/>
    <path d="m 73.675781 80.871094 l 1.636719 -0.4375 l 11.839844 44.1875 l -1.636719 0.4375 z m 0 0" fill="#deddda"/>
    <path d="m 66 64 l 8 12" fill="none" stroke="#ffffff" stroke-linecap="round" stroke-opacity="0.501961" stroke-width="3"/>
    <g clip-path="url(#k)" mask="url(#g)">
        <g clip-path="url(#j)" mask="url(#h)">
            <path d="m 128 80.640625 v 47.359375 h -128 v -47.359375 z m 0 0" fill="url(#i)"/>
            <path d="m 13.308594 80.640625 l 47.355468 47.359375 h 21.214844 l -47.359375 -47.359375 z m 42.421875 0 l 47.363281 47.359375 h 21.214844 l -47.363282 -47.359375 z m 42.429687 0 l 29.839844 29.839844 v -21.210938 l -8.628906 -8.628906 z m -98.160156 7.90625 v 21.214844 l 18.238281 18.238281 h 21.214844 z m 0 0"/>
        </g>
    </g>
</svg>
